name C:\Users\antoi\Documents\MyRepositories\upper-imu-dc\Results\main_tracking\Case_84\kinematics.mot
datacolumns 43
datarows 8
range 2.96000000 3.10000000
endheader 
time	clav_prot	clav_elev	scapula_abduction	scapula_elevation	scapula_upward_rot	scapula_winging	plane_elv	shoulder_elv	axial_rot	TrapeziusScapula_M/activation	TrapeziusScapula_S/activation	TrapeziusScapula_I/activation	TrapeziusClavicle_S/activation	SerratusAnterior_I/activation	SerratusAnterior_M/activation	SerratusAnterior_S/activation	Rhomboideus_S/activation	Rhomboideus_I/activation	LevatorScapulae/activation	Coracobrachialis/activation	DeltoideusClavicle_A/activation	DeltoideusScapula_P/activation	DeltoideusScapula_M/activation	LatissimusDorsi_S/activation	LatissimusDorsi_M/activation	LatissimusDorsi_I/activation	PectoralisMajorClavicle_S/activation	PectoralisMajorThorax_I/activation	PectoralisMajorThorax_M/activation	TeresMajor/activation	Infraspinatus_I/activation	Infraspinatus_S/activation	PectoralisMinor/activation	TeresMinor/activation	Subscapularis_S/activation	Subscapularis_M/activation	Subscapularis_I/activation	Supraspinatus_P/activation	Supraspinatus_A/activation	TRIlong/activation	BIC_long/activation	BIC_brevis/activation	
          2.96000000	        -43.54322960	          2.73161006	         -8.60498954	         -7.12781442	         68.00172883	        -10.76085706	         52.49452404	         99.87701667	        -15.42644289	          0.03457069	          0.04737186	          0.03426752	          0.04762052	          0.05877863	          0.10432344	          0.03840075	          0.02906568	          0.02082534	          0.02726394	          0.03045650	          0.04860999	          0.05834158	          0.05151883	          0.01093193	          0.01000000	          0.01000000	          0.03808425	          0.01000000	          0.02758236	          0.03213121	          0.06700279	          0.05079300	          0.01513531	          0.05418159	          0.02746431	          0.02532232	          0.01738142	          0.03893614	          0.03836020	          0.03734080	          0.03669596	          0.02843682	
          2.98000000	        -43.86280515	          2.73414705	         -8.81756559	         -7.13622831	         68.39030197	        -10.92706658	         52.13795086	         99.93243732	        -15.59608991	          0.03436360	          0.04694325	          0.03409721	          0.04757199	          0.05814422	          0.10390153	          0.03862248	          0.02918110	          0.02092683	          0.02748413	          0.03083356	          0.04839406	          0.05762767	          0.05030949	          0.01103336	          0.01000000	          0.01000000	          0.03836454	          0.01000000	          0.02826710	          0.03245376	          0.06603356	          0.05019464	          0.01569093	          0.05372778	          0.02778823	          0.02573349	          0.01809878	          0.03889507	          0.03840002	          0.03759768	          0.03674581	          0.02885542	
          3.00000000	        -44.16959838	          2.73362059	         -9.02808407	         -7.14582002	         68.75372528	        -11.08708469	         51.79775358	         99.97002236	        -15.76176262	          0.03421425	          0.04664913	          0.03399016	          0.04754898	          0.05760987	          0.10370887	          0.03881518	          0.02926926	          0.02097900	          0.02766066	          0.03129055	          0.04835364	          0.05680480	          0.04934903	          0.01102274	          0.01000000	          0.01000000	          0.03871073	          0.01000000	          0.02896125	          0.03267197	          0.06518988	          0.04968039	          0.01613107	          0.05327044	          0.02811767	          0.02610454	          0.01870074	          0.03891111	          0.03850056	          0.03759949	          0.03683161	          0.02939770	
          3.02000000	        -44.46251004	          2.73289542	         -9.23648864	         -7.15474176	         69.09066168	        -11.24152201	         51.47683036	         99.99113303	        -15.92235356	          0.03410652	          0.04649787	          0.03392272	          0.04757021	          0.05715245	          0.10368003	          0.03894002	          0.02933061	          0.02098532	          0.02778840	          0.03176772	          0.04848157	          0.05596859	          0.04865389	          0.01091024	          0.01000000	          0.01000000	          0.03912877	          0.01000000	          0.02966735	          0.03278528	          0.06450502	          0.04928844	          0.01645151	          0.05279830	          0.02845531	          0.02644833	          0.01921773	          0.03897808	          0.03863475	          0.03738700	          0.03693761	          0.03000080	
          3.04000000	        -44.74011252	          2.73492257	         -9.44301255	         -7.16110485	         69.39873412	        -11.39088661	         51.17809604	         99.99915047	        -16.07593573	          0.03405379	          0.04648701	          0.03395636	          0.04760483	          0.05680058	          0.10382303	          0.03903671	          0.02937908	          0.02096181	          0.02789166	          0.03224790	          0.04878919	          0.05506423	          0.04827679	          0.01072090	          0.01000000	          0.01000000	          0.03955465	          0.01000000	          0.03034370	          0.03279221	          0.06391507	          0.04906594	          0.01670672	          0.05232142	          0.02877848	          0.02672913	          0.01958050	          0.03911319	          0.03883460	          0.03707731	          0.03708799	          0.03062872	
          3.06000000	        -45.00048173	          2.74257133	         -9.64824746	         -7.16310948	         69.67403138	        -11.53543000	         50.90438418	        100.00000000	        -16.22076000	          0.03403482	          0.04655892	          0.03388940	          0.04764963	          0.05651479	          0.10400968	          0.03909320	          0.02941457	          0.02092197	          0.02797825	          0.03271631	          0.04923704	          0.05419743	          0.04816482	          0.01047639	          0.01000000	          0.01000000	          0.03997319	          0.01000000	          0.03096740	          0.03270112	          0.06341080	          0.04898387	          0.01691150	          0.05185250	          0.02908160	          0.02694276	          0.01981320	          0.03929868	          0.03906261	          0.03666307	          0.03724187	          0.03127778	
          3.08000000	        -45.24178054	          2.75810065	         -9.85239391	         -7.15937236	         69.91314203	        -11.67513960	         50.65778766	         99.99976460	        -16.35505231	          0.03405414	          0.04671426	          0.03410562	          0.04771015	          0.05630392	          0.10426409	          0.03919775	          0.02944506	          0.02085630	          0.02803137	          0.03309704	          0.04977156	          0.05345104	          0.04840346	          0.01024940	          0.01000000	          0.01000000	          0.04038366	          0.01000000	          0.03154442	          0.03256922	          0.06311270	          0.04892972	          0.01705205	          0.05139298	          0.02936772	          0.02715868	          0.02005710	          0.03947836	          0.03925924	          0.03618687	          0.03736389	          0.03184309	
          3.10000000	        -45.46408614	          2.78237930	        -10.05485368	         -7.14940600	         70.11726524	        -11.81025632	         50.43909406	         99.99981436	        -16.47605856	          0.03413716	          0.04693283	          0.03436573	          0.04776213	          0.05614477	          0.10462534	          0.03918756	          0.02941420	          0.02071718	          0.02796162	          0.03334020	          0.05033451	          0.05287136	          0.04871707	          0.01005051	          0.01000000	          0.01000000	          0.04071890	          0.01000000	          0.03201115	          0.03242575	          0.06288604	          0.04900712	          0.01709286	          0.05095240	          0.02960797	          0.02732617	          0.02021226	          0.03963620	          0.03939451	          0.03533271	          0.03750584	          0.03228971	
